<svg xmlns="http://www.w3.org/2000/svg" width="127.89" height="107.715" viewBox="0 0 3150 2653.09">
  <defs>
    <style>
      .cls-1 {
        fill: #99aab5;
        fill-rule: evenodd;
      }
    </style>
  </defs>
  <path id="announcement-channel-icon-normal" class="cls-1" d="M3495,672V3169H3181q-0.495-93.495-1-187-529.95-116.985-1060-234-156.99,206.985-314,414c-44.03,59.16-82.74,139.76-166,159-63.28,14.62-125.43-13.8-176-27q-143.49-35.49-287-71c-108.81-28.38-274.483-39.28-332-121-52.308-74.32-28-329.91-28-456q0.5-633.93,1-1268L3181,857q-0.495-92.49-1-185h315ZM345,1378H660V2544H345V1378Zm787,1153q0.495,179.985,1,360,204.48,50.49,409,101,119.985-158.985,240-318Z" transform="translate(-345 -672)"/>
</svg>
