<svg xmlns="http://www.w3.org/2000/svg" width="127.868" height="114.926" viewBox="0 0 3321.25 2985.09">
  <defs>
    <style>
      .cls-1 {
        fill: #99aab5;
        fill-rule: evenodd;
      }
    </style>
  </defs>
  <path id="announcement-channel-icon-normal-locked" class="cls-1" d="M3143,340c199.06-1.9,327.58,118.8,354,289q1.5,103.989,3,208c72.09,2.747,122.74,40.515,146,92q7.5,28.5,15,57v197c0,97.43,17.33,308.87-11,379-18.27,45.23-55.99,81.63-104,97-61.65,19.73-163.86,7-238,7H2817c-65.65-8.46-113.32-44.72-136-96-27.59-62.4-26.61-578.3,1-639,23.96-52.68,76.06-91.28,150-94q1.5-105.99,3-212c21.58-132.673,106.14-223.344,218-266C3080.8,348.4,3110.15,347.893,3143,340ZM2998,837h332c1.5-151.045,13.52-252.629-84-309-20.88-12.07-52-26.629-87-23C2987.79,522.754,2996.4,649.722,2998,837Zm497,1078V3169H3181q-0.495-93.495-1-187-529.95-116.985-1060-234-156.99,206.985-314,414c-44.03,59.16-82.74,139.76-166,159-63.28,14.62-125.43-13.8-176-27q-143.49-35.49-287-71c-108.81-28.38-274.483-39.28-332-121-52.308-74.32-28-329.91-28-456q0.5-633.93,1-1268,799.425-175.98,1599-352v408c0,70.23-6.89,151.87,6,213,9.32,44.19,25.98,83.9,47,117,39.52,62.25,103.36,113.27,181,137,74.87,22.88,189.53,14,285,14h559ZM345,1378H660V2544H345V1378Zm787,1153q0.495,179.985,1,360,204.48,50.49,409,101,119.985-158.985,240-318Z" transform="translate(-345 -340)"/>
</svg>
