<svg xmlns="http://www.w3.org/2000/svg" width="128.019" height="182.536" viewBox="0 0 2331.849 3324.875">
  <defs>
    <style>
      .cls-1 {
        fill: #99aab5;
        fill-rule: evenodd;
      }
    </style>
  </defs>
  <path id="locked-icon-normal" class="cls-1" d="M2832,1832c180.49-1.15,297.46,122.53,327,274,18.76,96.19,5,222.76,5,328v495c0,194.37,26.16,449.28-50,571-53.67,85.77-136.33,141.69-262,156H1515c-136.18,0-333.79,18.89-443-15-91.643-28.44-164.027-96.57-201-180-51.73-116.73-29-389.78-29-557V2421c0-101.37-13.11-223.66,5-316,29.933-152.63,146.657-271.77,327-273V1334c-0.01-105.88-5.64-220.21,12-310,75.52-384.359,448.04-767.906,957-673,361.44,67.4,611.32,316.928,678,679,16.46,89.36,11,201.79,11,306v496Zm-1327,0h996V1346c0-111.73,5.56-232.13-20-318-39.53-132.789-124.39-228.665-234-292-60.74-35.094-154.71-76.34-256-65-261.44,29.272-423.14,162.067-476,397-17.21,76.5-10,180.11-10,271v493Zm493,663q-34.5,5.505-69,11c-77.72,23.77-135.13,82.21-162,157-60.37,168.06,83.73,350.89,254,330C2334.08,2954.59,2320.95,2494.91,1998,2495Z" transform="translate(-837.031 -336.375)"/>
</svg>
