<svg xmlns="http://www.w3.org/2000/svg" width="127.962" height="122.106" viewBox="0 0 3306.5 3155.19">
  <defs>
    <style>
      .cls-1 {
        fill: #99aab5;
        fill-rule: evenodd;
      }
    </style>
  </defs>
  <path id="text-channel-icon-normal-locked" class="cls-1" d="M3143,340c199.06-1.9,327.58,118.8,354,289q1.5,103.989,3,208c72.09,2.747,122.74,40.515,146,92q7.5,28.5,15,57v197c0,97.43,17.33,308.87-11,379-18.27,45.23-55.99,81.63-104,97-61.65,19.73-163.86,7-238,7H2817c-65.65-8.46-113.32-44.72-136-96-27.59-62.4-26.61-578.3,1-639,23.96-52.68,76.06-91.28,150-94q1.5-105.99,3-212c21.58-132.673,106.14-223.344,218-266C3080.8,348.4,3110.15,347.893,3143,340ZM2998,837h332c1.5-151.045,13.52-252.629-84-309-20.88-12.07-52-26.629-87-23C2987.79,522.754,2996.4,649.722,2998,837ZM1476,506c80.69-1.094,202.6-15.573,239,30,33.92,42.472,7.83,126.395-3,181q-39.99,225.978-80,452h411c60.68,0,138.44-7.46,184,10,58.49,22.41,119.31,82.88,107,174-9.37,69.33-51.82,116.27-109,138-40.51,15.4-108.98,9-163,9H1701q-63.99.495-128,1-87.495,497.445-175,995h995q17.505-97.995,35-196c25.3-130.33,29.54-321.52,199-302,176.54,20.33,157.86,166.11,128,320q-15.495,88.485-31,177l1,1,589,3a83.767,83.767,0,0,1,57,65c5.69,31.21-22.89,184.77-34,212-7.12,17.45-22,33.36-38,42-34.75,18.78-112.16,9-162,9H2666q-39.495,221.475-79,443c-11.2,57.63-10.88,149.84-43,190-9.08,11.35-24.67,22.26-40,27-32.95,10.18-181.13,10.3-214,0-70.71-22.16-55.94-102.33-42-174q43.5-242.97,87-486H1339q-39.99,225.48-80,451c-11.44,58.94-11.61,150.84-47,188-25.27,26.53-192.06,38.39-248,21-72.869-22.65-56.2-104.85-42-178q43-240.975,86-482H572c-48.079,0-120.261,9.92-159-5-25.416-9.79-47.053-33.91-52-64-9.169-55.77,34.173-228.37,65-249,36.252-24.26,126.694-13,184-13h456q87.99-497.445,176-995l-1-1H811c-48.849,0-121.056,10.29-162-4-26.855-9.37-48.2-33.63-54-64-5.663-29.66,23.267-185.69,34-212,6.312-15.47,19.4-30.67,33-39,35.4-21.67,116.612-12,171-12h467q56.49-309.469,113-619C1426.36,524.876,1446.35,515.465,1476,506Z" transform="translate(-359.75 -340)"/>
</svg>
