<svg xmlns="http://www.w3.org/2000/svg" width="127.886" height="117.966" viewBox="0 0 3245.84 2994.065">
  <defs>
    <style>
      .cls-1 {
        fill: #99aab5;
        fill-rule: evenodd;
      }
    </style>
  </defs>
  <path id="text-channel-icon-normal" class="cls-1" d="M1476,506c80.69-1.094,202.6-15.573,239,30,33.92,42.472,7.83,126.395-3,181q-39.99,225.978-80,452h995q39.495-221.985,79-444c11-56.675,10.53-148.194,42-188,9.94-12.572,26.68-24.131,44-29,34.1-9.587,177.8-9.008,210,1,73.25,22.768,56.25,105.591,42,179q-42.99,240.476-86,481c104.95-.55,569.56-17.96,615,16,15.25,11.39,28.41,31.29,32,54,5.07,32.1-23.34,184.92-35,212-9.49,22.03-30.08,40.51-55,47q-248.475,1.005-497,2l-119,3q-87.495,495.945-175,992l1,1,589,3a83.767,83.767,0,0,1,57,65c5.69,31.21-22.89,184.77-34,212-7.12,17.45-22,33.36-38,42-34.75,18.78-112.16,9-162,9H2666q-39.495,221.475-79,443c-11.2,57.63-10.88,149.84-43,190-9.08,11.35-24.67,22.26-40,27-32.95,10.18-181.13,10.3-214,0-70.71-22.16-55.94-102.33-42-174q43.5-242.97,87-486H1339q-39.99,225.48-80,451c-11.44,58.94-11.61,150.84-47,188-25.27,26.53-192.06,38.39-248,21-72.869-22.65-56.2-104.85-42-178q43-240.975,86-482H572c-48.079,0-120.261,9.92-159-5-25.416-9.79-47.053-33.91-52-64-9.169-55.77,34.173-228.37,65-249,36.252-24.26,126.694-13,184-13h456q87.99-497.445,176-995l-1-1H811c-48.849,0-121.056,10.29-162-4-26.855-9.37-48.2-33.63-54-64-5.663-29.66,23.267-185.69,34-212,6.312-15.47,19.4-30.67,33-39,35.4-21.67,116.612-12,171-12h467q56.49-309.469,113-619C1426.36,524.876,1446.35,515.465,1476,506Zm98,994q-87.99,497.955-176,996h995q87.99-497.445,176-995l-1-1H1574Z" transform="translate(-359.75 -501.125)"/>
</svg>
