<svg xmlns="http://www.w3.org/2000/svg" width="128.051" height="121.347" viewBox="0 0 3326 3151.88">
  <defs>
    <style>
      .cls-1 {
        fill: #99aab5;
        fill-rule: evenodd;
      }
    </style>
  </defs>
  <path id="voice-channel-icon-normal-locked" class="cls-1" d="M3143,340c199.06-1.9,327.58,118.8,354,289q1.5,103.989,3,208c72.09,2.747,122.74,40.515,146,92q7.5,28.5,15,57v197c0,97.43,17.33,308.87-11,379-18.27,45.23-55.99,81.63-104,97-61.65,19.73-163.86,7-238,7H2817c-65.65-8.46-113.32-44.72-136-96-27.59-62.4-26.61-578.3,1-639,23.96-52.68,76.06-91.28,150-94q1.5-105.99,3-212c21.58-132.673,106.14-223.344,218-266C3080.8,348.4,3110.15,347.893,3143,340ZM2998,837h332c1.5-151.045,13.52-252.629-84-309-20.88-12.07-52-26.629-87-23C2987.79,522.754,2996.4,649.722,2998,837ZM1825,506c173.31-1.605,178.01,124.674,178,298V3211c0,57.6,6.37,129.06-10,172-22.62,59.34-71.38,99.42-145,108-107.54,12.53-188.4-112.35-236-168q-273.975-300.465-548-601-27.495-30-55-60H606c-50.04,0-108.139,4.15-147-8-39.479-12.34-72.624-41.24-92-74-37.23-62.95-22-199.35-22-296V1700c0-75.29-13.5-177.36,5-243a170.022,170.022,0,0,1,79-101c71.681-41.24,352.344-21,470-21h110q78.495-86.985,157-174,207.48-226.47,415-453C1649.98,627.389,1705.92,537.617,1825,506ZM2832,1998c3.32,291.44-218.85,482.3-497,498V2164c97.8,1.23,162.93-71.6,166-166h331Zm332,0h331c7.02,642.32-522.47,1160.63-1160,1161V2828C2791.62,2830.43,3166.03,2454.75,3164,1998Z" transform="translate(-340.25 -340)"/>
</svg>
