<svg xmlns="http://www.w3.org/2000/svg" width="127.962" height="121.227" viewBox="0 0 3151.78 2985.88">
  <defs>
    <style>
      .cls-1 {
        fill: #99aab5;
        fill-rule: evenodd;
      }
    </style>
  </defs>
  <path id="voice-channel-icon-normal" class="cls-1" d="M1825,506c173.31-1.605,178.01,124.674,178,298V3211c0,57.6,6.37,129.06-10,172-22.62,59.34-71.38,99.42-145,108-107.54,12.53-188.4-112.35-236-168q-273.975-300.465-548-601-27.495-30-55-60H606c-50.04,0-108.139,4.15-147-8-39.479-12.34-72.624-41.24-92-74-37.23-62.95-22-199.35-22-296V1700c0-75.29-13.5-177.36,5-243a170.022,170.022,0,0,1,79-101c71.681-41.24,352.344-21,470-21h110q78.495-86.985,157-174,207.48-226.47,415-453C1649.98,627.389,1705.92,537.617,1825,506Zm510,332c547.34-5.981,936.84,361.72,1087,756,84.28,221.31,97.57,546.05,12,779-154.48,420.53-528.03,785.41-1099,786V2828c529.83,2.96,992.7-540.92,781-1109-108.63-291.49-381.57-551.71-781-550V838Zm0,663c327.56-4,597.82,332.94,464,677-71.09,182.78-222.69,304.25-464,318V2164c216.38,2.91,216.01-334.12,1-331l-1-1V1501Z" transform="translate(-340.25 -506)"/>
</svg>
