<svg id="Message" xmlns="http://www.w3.org/2000/svg" xmlns:xlink="http://www.w3.org/1999/xlink" width="2402" height="1073" viewBox="0 0 2402 1073">
  <defs>
    <style>
      .cls-1 {
        fill: #2f3136;
      }

      .cls-1, .cls-11, .cls-12, .cls-15, .cls-16, .cls-17, .cls-18, .cls-19, .cls-2, .cls-20, .cls-22, .cls-23, .cls-24, .cls-25, .cls-26, .cls-27, .cls-28, .cls-29, .cls-30, .cls-31, .cls-32, .cls-33, .cls-34, .cls-35, .cls-36, .cls-37, .cls-38, .cls-39, .cls-4, .cls-40, .cls-5, .cls-9 {
        fill-rule: evenodd;
      }

      .cls-2 {
        fill: #4cc388;
      }

      .cls-3, .cls-4, .cls-6 {
        fill: #7289da;
      }

      .cls-3 {
        opacity: 0.2;
      }

      .cls-13, .cls-5 {
        fill: #fff;
      }

      .cls-7 {
        fill: #1c2237;
      }

      .cls-8 {
        filter: url(#filter);
      }

      .cls-10, .cls-9 {
        fill: #45cb85;
      }

      .cls-12 {
        fill: #5d6068;
      }

      .cls-13 {
        font-size: 1296px;
        text-anchor: middle;
        font-family: Whitney;
        font-weight: 500;
      }

      .cls-14 {
        fill: #151515;
      }

      .cls-15 {
        fill: #bc4831;
      }

      .cls-16 {
        fill: #c75e3e;
      }

      .cls-17 {
        fill: #d67447;
      }

      .cls-18 {
        fill: #f6eee3;
      }

      .cls-19 {
        fill: #232530;
      }

      .cls-20 {
        fill: #74371a;
      }

      .cls-21, .cls-40 {
        fill: #261e25;
      }

      .cls-22 {
        fill: #8e4e3a;
      }

      .cls-23 {
        fill: #aaa7b6;
      }

      .cls-24 {
        fill: #f9fcfa;
      }

      .cls-25 {
        fill: #27394d;
      }

      .cls-26 {
        fill: #f4f0e2;
      }

      .cls-27 {
        fill: #979da9;
      }

      .cls-28 {
        fill: #d9d2d4;
      }

      .cls-29 {
        fill: #2d2837;
      }

      .cls-30 {
        fill: #58525d;
      }

      .cls-31 {
        fill: #e7e1ec;
      }

      .cls-32 {
        fill: #260122;
      }

      .cls-33 {
        fill: #9c8fa3;
      }

      .cls-34 {
        fill: #c33e4f;
      }

      .cls-35 {
        fill: #d5d0d1;
      }

      .cls-36 {
        fill: #99a0ab;
      }

      .cls-37 {
        fill: #53616e;
      }

      .cls-38 {
        fill: #27323f;
      }

      .cls-39 {
        fill: #f5eee4;
      }
    </style>
    <filter id="filter" filterUnits="userSpaceOnUse">
      <feOffset result="offset" dx="-16.454" dy="9.5" in="SourceAlpha"/>
      <feGaussianBlur result="blur" stdDeviation="7.348"/>
      <feFlood result="flood" flood-color="#151515" flood-opacity="0.21"/>
      <feComposite result="composite" operator="in" in2="blur"/>
      <feBlend result="blend" in="SourceGraphic"/>
    </filter>
  </defs>
  <g id="Embed">
    <path id="Embed_BG" data-name="Embed BG" class="cls-1" d="M569.966,1073.32h1817a14.993,14.993,0,0,0,15-15V669.446a15,15,0,0,0-15-15h-1817V1073.32Z"/>
    <path id="Embed_Colour" data-name="Embed Colour" class="cls-2" d="M545.136,654.466a18.426,18.426,0,0,0-18.426,18.426V1054.91a18.427,18.427,0,0,0,18.426,18.43h25.209V654.466H545.136Z"/>
    <g id="Description">
      <g id="Mention">
        <rect id="MentionBG" class="cls-3" x="668.469" y="785" width="383.941" height="157.75" rx="15" ry="15"/>
        <path id="Username" class="cls-4" d="M733.394,870.746c-5.226,6.5-8.826,9.291-12.775,9.291-3.717,0-5.691-2.555-5.691-8.362,0-13.7,7.549-22.3,14.982-22.3a17.857,17.857,0,0,1,6.736,1.161Zm0.581,7.317c1.626,6.271,7.317,9.523,14.285,9.523,12.776,0,20.789-11.73,20.789-29.616,0-22.879-14.866-37.513-37.513-37.513-26.828,0-47.5,23.344-47.5,51.45,0,24.042,14.983,37.63,38.1,37.63a61.73,61.73,0,0,0,26.364-5.575l-0.7-4.181a55.675,55.675,0,0,1-25.2,5.691c-19.047,0-33.448-10.336-33.448-33.681,0-27.409,19.163-47.153,41.926-47.153,18.583,0,32.984,11.15,32.984,33.449,0,15.563-6.271,24.041-14.4,24.041-4.762,0-7.549-2.788-7.549-7.433a47.372,47.372,0,0,1,.464-6.04l3.6-23.576a45.47,45.47,0,0,0-15.331-2.9c-12.659,0-24.854,12.2-24.854,30.661,0,10.337,6.039,14.75,12.195,14.75C723.755,887.586,728.168,884.683,733.975,878.063Zm95.115-6.388c0-12.079-5.342-17.421-20.905-24.506-12.195-5.574-15.215-8.478-15.215-14.633,0-5.923,4.066-10.8,13.241-10.8a28.411,28.411,0,0,1,16.84,5.923l1.742-10.917a35.449,35.449,0,0,0-18.234-4.53c-14.518,0-24.39,8.246-24.39,21.138,0,11.5,5.691,16.492,20.79,23.344,12.078,5.459,15.33,8.478,15.33,15.8,0,7.782-5.923,12.195-14.285,12.195-8.014,0-15.563-3.252-21.021-6.852l-1.626,11.149a48.384,48.384,0,0,0,22.415,5.226C818.754,894.206,829.09,885.5,829.09,871.675Zm40.3,21.835-1.394-8.827a27.585,27.585,0,0,1-4.761.348c-5.807,0-7.666-2.787-7.666-7.317V846.589h13.357l-1.394-8.711H855.567V817.9l-10.1,1.51v18.466H837.1v8.711h8.362v32.984c0,11.149,6.388,14.633,16.144,14.633A38.61,38.61,0,0,0,869.388,893.51Zm56.792-55.632H915.611L900.861,881.2l-15.1-44.134-10.22,1.626,20.208,54.819-2.091,5.69c-1.625,4.414-4.529,6.5-8.826,6.5a23.338,23.338,0,0,1-5.807-.813l1.394,9.059a15.91,15.91,0,0,0,3.6.465c9.175,0,15.1-3.368,19.86-16.26Zm54.118,54.7-18.7-27.989,17.537-26.713h-10.8l-12.078,18.931L943.6,837.065l-10.22,1.626,17.537,26.248-18.7,28.338h10.917L956.141,872.6l13.937,21.486Zm57.482-26.944c0-18.234-10.91-28.919-25.78-28.919-14.748,0-25.433,10.685-25.433,28.919s10.685,28.8,25.433,28.8C1026.87,894.439,1037.78,883.87,1037.78,865.636Zm-10.45,0c0,11.614-5.11,20.208-15.33,20.208-9.75,0-14.98-8.826-14.98-20.208,0-11.614,4.99-20.209,14.98-20.209S1027.33,854.254,1027.33,865.636Z"/>
      </g>
      <path id="Set_the_bassboost_to_20_" data-name="Set the bassboost to 20%" class="cls-5" d="M1148.79,878.3c0-11.508-5.09-16.6-19.92-23.349-11.62-5.311-14.49-8.077-14.49-13.942,0-5.643,3.87-10.291,12.61-10.291a27.033,27.033,0,0,1,16.04,5.644l1.66-10.4a33.739,33.739,0,0,0-17.37-4.315c-13.83,0-23.24,7.856-23.24,20.139,0,10.954,5.43,15.713,19.81,22.241,11.51,5.2,14.61,8.078,14.61,15.049,0,7.414-5.65,11.619-13.61,11.619-7.64,0-14.83-3.1-20.03-6.529l-1.55,10.623a46.1,46.1,0,0,0,21.36,4.979C1138.94,899.768,1148.79,891.469,1148.79,878.3Zm55.77-6.861c0-14.606-7.09-26.446-22.47-26.446-13.28,0-23.23,10.4-23.23,27.331,0,19.365,10.73,27.664,24.45,27.664a32.839,32.839,0,0,0,21.13-7.082l-1.43-8.852c-5.76,4.536-11.29,7.524-18.93,7.524-9.18,0-15.04-5.754-15.38-18.037h35.86v-2.1Zm-9.96-5.311h-25.45c1.55-9.074,6.75-13.39,12.83-13.39C1189.62,852.74,1193.38,857.609,1194.6,866.13Zm47.8,32.975-1.33-8.41a26.359,26.359,0,0,1-4.54.332c-5.53,0-7.3-2.656-7.3-6.971V854.4h12.72l-1.32-8.3h-11.4V827.069l-9.63,1.438V846.1h-7.97v8.3h7.97v31.426c0,10.623,6.09,13.942,15.38,13.942A36.909,36.909,0,0,0,1242.4,899.105Zm61.63,0-1.33-8.41a26.359,26.359,0,0,1-4.54.332c-5.53,0-7.3-2.656-7.3-6.971V854.4h12.72l-1.32-8.3h-11.4V827.069l-9.63,1.438V846.1h-7.97v8.3h7.97v31.426c0,10.623,6.09,13.942,15.38,13.942A36.909,36.909,0,0,0,1304.03,899.105Zm54.99-.222v-38.4c0-9.516-5.31-15.491-15.27-15.491-7.53,0-13.61,4.2-17.93,8.077V818.991l-9.85,1.549v78.343h9.85V862.367c4.76-5.09,10.07-8.52,15.27-8.52,5.76,0,8.08,3.652,8.08,9.074v35.962h9.85ZM1417,871.441c0-14.606-7.08-26.446-22.46-26.446-13.28,0-23.24,10.4-23.24,27.331,0,19.365,10.73,27.664,24.45,27.664a32.888,32.888,0,0,0,21.14-7.082l-1.44-8.852c-5.75,4.536-11.29,7.524-18.92,7.524-9.19,0-15.05-5.754-15.38-18.037H1417v-2.1Zm-9.96-5.311h-25.45c1.55-9.074,6.75-13.39,12.84-13.39C1402.06,852.74,1405.82,857.609,1407.04,866.13ZM1500.32,871c0-17.594-9.41-26-20.81-26-7.19,0-12.28,3.651-15.82,7.3V818.991l-9.85,1.549v75.687a65.23,65.23,0,0,0,20.58,3.32C1489.69,899.547,1500.32,890.252,1500.32,871Zm-9.96.443c0,13.61-5.76,19.7-16.05,19.7a26.6,26.6,0,0,1-10.62-1.77v-27c3.98-4.979,8.85-8.631,14.38-8.631C1485.16,853.736,1490.36,859.933,1490.36,871.441Zm62.4,27.442V861.925c0-11.73-6.19-16.93-19.03-16.93-8.19,0-14.16,1.881-20.47,4.426l1.33,8.52c5.75-2.545,11.84-4.537,18.25-4.537,6.09,0,10.07,2.324,10.07,8.963v2.213c-22.02,2.324-33.3,7.525-33.3,20.693,0,8.963,5.97,14.717,15.49,14.717,8.63,0,14.38-3.873,18.59-8.189l1.11,7.082h7.96Zm-9.85-14.5c-4.42,4.537-9.95,7.414-15.71,7.414-4.98,0-7.85-2.766-7.85-7.082,0-5.422,4.09-10.733,23.56-12.614v12.282Zm61.97-.221c0-10.069-5.87-13.832-18.92-17.151-8.3-2.1-10.96-4.094-10.96-7.635,0-3.763,3.1-6.086,9.07-6.086a33.675,33.675,0,0,1,16.05,4.536l1.55-9.294A42.67,42.67,0,0,0,1584.3,845c-11.51,0-18.59,6.2-18.59,14.606,0,9.406,4.98,13.168,17.37,16.266,9.52,2.324,12.5,4.094,12.5,8.963,0,4.426-3.98,6.971-10.73,6.971a32.995,32.995,0,0,1-18.59-6.086l-1.44,9.295a43.294,43.294,0,0,0,19.25,4.98C1597.69,899.99,1604.88,893.793,1604.88,884.166Zm48.46,0c0-10.069-5.86-13.832-18.92-17.151-8.3-2.1-10.96-4.094-10.96-7.635,0-3.763,3.1-6.086,9.08-6.086a33.637,33.637,0,0,1,16.04,4.536l1.55-9.294A42.635,42.635,0,0,0,1632.76,845c-11.51,0-18.59,6.2-18.59,14.606,0,9.406,4.98,13.168,17.37,16.266,9.52,2.324,12.51,4.094,12.51,8.963,0,4.426-3.99,6.971-10.74,6.971a32.995,32.995,0,0,1-18.59-6.086l-1.44,9.295a43.339,43.339,0,0,0,19.26,4.98C1646.15,899.99,1653.34,893.793,1653.34,884.166ZM1711.87,871c0-17.594-9.4-26-20.8-26-7.19,0-12.28,3.651-15.82,7.3V818.991l-9.85,1.549v75.687a65.183,65.183,0,0,0,20.58,3.32C1701.25,899.547,1711.87,890.252,1711.87,871Zm-9.95.443c0,13.61-5.76,19.7-16.05,19.7a26.6,26.6,0,0,1-10.62-1.77v-27c3.98-4.979,8.85-8.631,14.38-8.631C1696.71,853.736,1701.92,859.933,1701.92,871.441Zm68.27,1.107c0-17.373-10.41-27.553-24.57-27.553-14.05,0-24.23,10.18-24.23,27.553s10.18,27.442,24.23,27.442C1759.78,899.99,1770.19,889.92,1770.19,872.548Zm-9.96,0c0,11.065-4.87,19.253-14.61,19.253-9.29,0-14.27-8.409-14.27-19.253,0-11.066,4.75-19.254,14.27-19.254S1760.23,861.7,1760.23,872.548Zm68.27,0c0-17.373-10.4-27.553-24.57-27.553-14.05,0-24.23,10.18-24.23,27.553s10.18,27.442,24.23,27.442C1818.1,899.99,1828.5,889.92,1828.5,872.548Zm-9.96,0c0,11.065-4.87,19.253-14.61,19.253-9.29,0-14.27-8.409-14.27-19.253,0-11.066,4.76-19.254,14.27-19.254S1818.54,861.7,1818.54,872.548Zm59.31,11.618c0-10.069-5.87-13.832-18.93-17.151-8.29-2.1-10.95-4.094-10.95-7.635,0-3.763,3.1-6.086,9.07-6.086a33.675,33.675,0,0,1,16.05,4.536l1.55-9.294A42.684,42.684,0,0,0,1857.26,845c-11.5,0-18.59,6.2-18.59,14.606,0,9.406,4.98,13.168,17.38,16.266,9.51,2.324,12.5,4.094,12.5,8.963,0,4.426-3.98,6.971-10.73,6.971a32.995,32.995,0,0,1-18.59-6.086l-1.44,9.295a43.294,43.294,0,0,0,19.25,4.98C1870.65,899.99,1877.85,893.793,1877.85,884.166Zm37.39,14.939-1.32-8.41a26.359,26.359,0,0,1-4.54.332c-5.53,0-7.3-2.656-7.3-6.971V854.4h12.72l-1.33-8.3h-11.39V827.069l-9.63,1.438V846.1h-7.97v8.3h7.97v31.426c0,10.623,6.09,13.942,15.38,13.942A36.792,36.792,0,0,0,1915.24,899.105Zm61.63,0-1.32-8.41a26.359,26.359,0,0,1-4.54.332c-5.53,0-7.3-2.656-7.3-6.971V854.4h12.72l-1.33-8.3h-11.39V827.069l-9.63,1.438V846.1h-7.97v8.3h7.97v31.426c0,10.623,6.08,13.942,15.38,13.942A36.792,36.792,0,0,0,1976.87,899.105Zm57.32-26.557c0-17.373-10.4-27.553-24.56-27.553-14.06,0-24.24,10.18-24.24,27.553s10.18,27.442,24.24,27.442C2023.79,899.99,2034.19,889.92,2034.19,872.548Zm-9.96,0c0,11.065-4.87,19.253-14.6,19.253-9.3,0-14.28-8.409-14.28-19.253,0-11.066,4.76-19.254,14.28-19.254S2024.23,861.7,2024.23,872.548Zm92.72,26.335-1.32-8.852h-34.42l21.36-21.688c9.18-9.406,13.28-15.492,13.28-24.566,0-12.835-8.85-21.135-23.35-21.135a33.861,33.861,0,0,0-22.35,8.41l1.44,9.627c5.86-5.2,12.61-8.852,20.36-8.852,8.74,0,13.61,4.205,13.61,12.614,0,6.086-2.99,10.844-9.74,17.926l-27.66,28.881v7.635h48.79Zm68.28-37.4c0-24.786-11.51-38.84-28.55-38.84-17.15,0-28.66,14.054-28.66,38.84s11.51,38.84,28.66,38.84C2173.72,900.322,2185.23,886.269,2185.23,861.482Zm-10.18,0c0,19.475-6.87,30.1-18.37,30.1s-18.48-10.623-18.48-30.1,6.97-30.1,18.48-30.1S2175.05,842.007,2175.05,861.482Zm56.76-16.266c0-13.832-7.97-22.02-18.04-22.02s-18.04,8.188-18.04,22.02c0,13.721,7.97,22.02,18.04,22.02S2231.81,858.937,2231.81,845.216Zm36.4-20.028-7.63-1.882-47.47,74.471,7.52,1.881Zm-45.03,20.028c0,8.3-2.77,15.049-9.41,15.049-6.42,0-9.41-6.861-9.41-15.049,0-8.41,2.77-15.049,9.41-15.049C2220.3,830.167,2223.18,836.917,2223.18,845.216Zm62.29,32.532c0-13.832-7.96-22.02-18.03-22.02s-18.04,8.188-18.04,22.02c0,13.721,7.97,22.02,18.04,22.02S2285.47,891.469,2285.47,877.748Zm-8.63,0c0,8.3-2.76,15.049-9.4,15.049-6.42,0-9.41-6.86-9.41-15.049,0-8.409,2.77-15.049,9.41-15.049C2273.97,862.7,2276.84,869.449,2276.84,877.748Z"/>
    </g>
  </g>
  <g id="Author">
    <g id="Flags">
      <g id="BOT">
        <rect id="BotFlagBG" class="cls-6" x="882.531" y="441.469" width="253.219" height="141.375" rx="15" ry="15"/>
        <path id="BOT-2" data-name="BOT" class="cls-5" d="M970.931,520.472c0-8.282-4.732-13.014-11.739-15.107,5.642-2.366,9.009-6.643,9.009-13.013,0-9.646-6.461-16.289-20.293-16.289h-15.2v62.791h15.015C962.2,538.854,970.931,533.03,970.931,520.472Zm-11.1-27.847c0,6.188-4.459,9.828-12.74,9.828h-6.006v-19.11h6.643C956.28,483.343,959.829,486.892,959.829,492.625Zm2.73,28.028c0,7.281-5.187,10.921-14.2,10.921h-7.28V509.46h7.007C957.463,509.46,962.559,513.373,962.559,520.653Zm75.071-13.286c0-19.383-11.1-32.487-28.84-32.487-17.659,0-29.034,13.195-29.034,32.669,0,19.384,11.193,32.488,28.844,32.488C1026.35,540.037,1037.63,526.751,1037.63,507.367Zm-8.82.091c0,15.106-7.65,24.753-20.12,24.753-12.372,0-20.107-9.647-20.107-24.753s7.644-24.752,20.107-24.752C1021.07,482.706,1028.81,492.352,1028.81,507.458Zm61.87-23.569-1.27-7.826h-47.87v7.826h20.02v54.965h8.56V483.889h20.56Z"/>
      </g>
    </g>
    <path id="Username-2" data-name="Username" class="cls-5" d="M612.814,479l-2.181-13.4H528.678V479h34.278v94.108H577.6V479h35.212Zm57.022,94.108V498.788H655.97v51.417c-6.7,7.167-14.179,12-21.5,12-8.1,0-11.374-5.141-11.374-12.776V498.788H609.227v54.066c0,13.4,7.323,21.813,21.5,21.813,10.439,0,19.32-5.765,26.331-12.309l1.714,10.751h11.062Zm82.419,0V519.044c0-13.4-7.479-21.814-21.5-21.814-10.6,0-19.32,5.921-26.331,12.309l-1.714-10.751H691.645v74.321h13.867V521.692c6.7-7.167,14.179-12,21.5-12,8.1,0,11.374,5.142,11.374,12.776v50.638h13.867Zm81.639-38.641c0-20.566-9.972-37.238-31.629-37.238-18.7,0-32.72,14.646-32.72,38.485,0,27.266,15.113,38.952,34.434,38.952,12.309,0,21.813-3.739,29.759-9.972l-2.025-12.464c-8.1,6.388-15.893,10.594-26.644,10.594-12.932,0-21.189-8.1-21.657-25.4h50.482v-2.961Zm-14.023-7.478H784.035c2.182-12.776,9.5-18.853,18.074-18.853C812.86,508.137,818.157,514.993,819.871,526.99Z"/>
    <g id="LogoFull">
      <circle id="LogoBG" class="cls-7" cx="183.453" cy="623.953" r="182.485"/>
      <g id="Logo" class="cls-8">
        <path id="T" class="cls-9" d="M43.5,508.247H283.838l70.451,59.125H231.79l-0.411,232.576-65.8-50.3V582.527s1.129-6.03,6.891-6.03a7.777,7.777,0,0,1,7.753,6.03V742.752l37.405,27.566-0.17-202.946H113.951Zm44.9,15.7H280.321l29.825,26.7H118.225Z"/>
        <g id="Record">
          <ellipse id="Color_Fill_2" data-name="Color Fill 2" class="cls-10" cx="172.969" cy="654.094" rx="81.094" ry="81.094"/>
          <path id="VinylRecord" class="cls-11" d="M172.974,643.979A10.122,10.122,0,1,1,162.852,654.1,10.122,10.122,0,0,1,172.974,643.979Zm0-67.28a77.4,77.4,0,1,0,77.4,77.4A77.4,77.4,0,0,0,172.974,576.7ZM143.461,595.95a64.935,64.935,0,0,1,29.513-7.045c0.624,0,1.242.009,1.86,0.025,1.027,0.028,1.732,2.58,1.578,5.666l-0.789,15.882c-0.154,3.086-.808,5.556-1.463,5.536-0.4-.011-0.789-0.017-1.186-0.017A37.985,37.985,0,0,0,157.3,619.36a6.012,6.012,0,0,1-7.76-2.146l-8.1-13.7A5.381,5.381,0,0,1,143.461,595.95Zm-3.167,29.134-11.968-10.469a5.207,5.207,0,0,1-.333-7.71c0.054-.05.1-0.1,0.16-0.148a5.17,5.17,0,0,1,7.657.744l9.775,12.545c1.9,2.436,2.342,5.284,1.094,6.473S142.622,627.118,140.294,625.084Zm5.291,29.017a27.389,27.389,0,1,1,27.389,27.389A27.388,27.388,0,0,1,145.585,654.1Zm56.772,58.216a64.929,64.929,0,0,1-29.383,6.98q-1.041,0-2.073-.031c-1.145-.036-1.936-2.6-1.769-5.684L170,697.7c0.171-3.086.9-5.542,1.639-5.517,0.442,0.014.887,0.023,1.335,0.023a38.046,38.046,0,0,0,14.489-2.848,6.621,6.621,0,0,1,8.048,2.187l8.676,13.345A5.1,5.1,0,0,1,202.357,712.317ZM217.6,701.63a5.209,5.209,0,0,1-7.563-.853L200,688.448c-1.953-2.395-2.451-5.17-1.217-6.309s4.037-.5,6.362,1.536l11.974,10.474A5.033,5.033,0,0,1,217.6,701.63Z"/>
        </g>
        <g id="Arm">
          <path id="Arm-2" data-name="Arm" class="cls-9" d="M225.953,616.745l18.82,16.586c0.743,0.654.615,2.012-.286,3.034L221.666,662.26c-0.9,1.021-2.231,1.319-2.974.665l-18.819-16.586c-0.743-.654-0.615-2.013.285-3.034l22.821-25.895C223.88,616.388,225.211,616.091,225.953,616.745Zm-1.4,10.294,9.176,7.618a1.3,1.3,0,0,1-.219,1.667l-12.233,15.713a1.21,1.21,0,0,1-1.53.578L210.577,645a1.3,1.3,0,0,1,.219-1.667l12.233-15.713A1.21,1.21,0,0,1,224.558,627.039Z"/>
          <path id="Arm-3" data-name="Arm" class="cls-9" d="M298.867,555.088a4.051,4.051,0,0,1,.362,5.718l-61.486,69.8a4.052,4.052,0,0,1-6.081-5.356l61.487-69.8A4.051,4.051,0,0,1,298.867,555.088Z"/>
        </g>
      </g>
    </g>
  </g>
  <path id="CreatedTime" class="cls-12" d="M1300.46,468.6l-1.66-10.212h-62.46V468.6h26.12V540.32h11.16V468.6h26.84Zm45.6,43.461c0-18.643-11.17-29.568-26.37-29.568-15.08,0-26,10.925-26,29.568s10.92,29.449,26,29.449C1334.89,541.507,1346.06,530.7,1346.06,512.058Zm-10.69,0c0,11.875-5.23,20.662-15.68,20.662-9.97,0-15.31-9.025-15.31-20.662,0-11.875,5.1-20.662,15.31-20.662S1335.37,500.421,1335.37,512.058Zm71.36,28.262V454.585l-10.57,1.662v29.212a39.828,39.828,0,0,0-14.25-2.494c-13.77,0-25.65,9.975-25.65,30.637,0,19,10.1,27.9,22.33,27.9,8.31,0,14.13-4.275,18.4-9.381l1.31,8.194h8.43Zm-10.57-18.169c-4.51,6.056-9.5,9.975-16.03,9.975-7.6,0-13.18-6.531-13.18-19,0-14.012,6.41-21.256,15.32-21.256,6.06,0,9.5.95,13.89,3.206v27.074Zm70.06,18.169V500.658c0-12.587-6.65-18.168-20.42-18.168-8.79,0-15.2,2.019-21.97,4.75l1.42,9.143c6.18-2.731,12.71-4.868,19.6-4.868,6.53,0,10.8,2.494,10.8,9.618v2.375c-23.63,2.494-35.74,8.075-35.74,22.206,0,9.618,6.41,15.793,16.62,15.793,9.27,0,15.44-4.156,19.95-8.787l1.19,7.6h8.55Zm-10.57-15.556c-4.75,4.868-10.69,7.956-16.86,7.956-5.34,0-8.43-2.969-8.43-7.6,0-5.818,4.39-11.518,25.29-13.537v13.181Zm72.2-41.086h-10.81l-15.08,44.292-15.44-45.124-10.45,1.663,20.67,56.048-2.14,5.819c-1.66,4.512-4.63,6.649-9.03,6.649a23.878,23.878,0,0,1-5.93-.831l1.42,9.262a16.327,16.327,0,0,0,3.68.475c9.38,0,15.44-3.443,20.31-16.624Zm80.03,56.642V500.658c0-12.587-6.65-18.168-20.43-18.168-8.79,0-15.2,2.019-21.97,4.75l1.43,9.143c6.17-2.731,12.7-4.868,19.59-4.868,6.53,0,10.81,2.494,10.81,9.618v2.375c-23.63,2.494-35.74,8.075-35.74,22.206,0,9.618,6.41,15.793,16.62,15.793,9.26,0,15.44-4.156,19.95-8.787l1.19,7.6h8.55Zm-10.57-15.556c-4.75,4.868-10.69,7.956-16.86,7.956-5.35,0-8.44-2.969-8.44-7.6,0-5.818,4.4-11.518,25.3-13.537v13.181Zm54.14,15.793-1.42-9.025a28.171,28.171,0,0,1-4.87.357c-5.94,0-7.84-2.85-7.84-7.481V492.584h13.66l-1.43-8.906h-12.23V463.253l-10.33,1.544v18.881h-8.55v8.906h8.55v33.723c0,11.4,6.53,14.963,16.51,14.963A39.372,39.372,0,0,0,1651.45,540.557Zm61.75-.237V459.81h-9.27l-19.23,8.906,1.18,8.549,16.75-6.293V540.32h10.57Zm68.87,0-1.43-9.5h-36.93l22.92-23.274c9.86-10.094,14.25-16.625,14.25-26.362,0-13.775-9.5-22.681-25.06-22.681a36.337,36.337,0,0,0-23.98,9.025l1.54,10.331c6.29-5.581,13.54-9.5,21.85-9.5,9.38,0,14.61,4.513,14.61,13.537,0,6.532-3.21,11.638-10.45,19.237l-29.69,30.993v8.194h52.37Zm25.76-42.512v-14.13h-11.87v14.13h11.87Zm0,42.512V526.189h-11.87V540.32h11.87Zm63.65-21.968c0-11.163-5.94-17.456-16.27-20.306,8.67-2.85,14.72-8.55,14.72-18.524,0-10.806-7.48-21.019-25.53-21.019-9.97,0-17.1,2.85-23.27,7.363l1.54,9.974a33.316,33.316,0,0,1,21.26-7.718c10.09,0,15.08,4.987,15.08,11.875,0,8.668-6.29,13.418-19.59,13.418h-6.06l1.54,9.5h3.68c15.44,0,21.97,5.818,21.97,15.555,0,9.025-6.53,13.775-17.1,13.775-8.43,0-15.08-2.494-21.85-7.125l-1.78,10.45a45.391,45.391,0,0,0,23.04,6.293C1860.43,541.863,1871.48,532.482,1871.48,518.352Zm72.43,3.8v-8.787h-12.83V459.81h-12.7l-37.29,54.5v7.837h40.14V540.32h9.85V522.151h12.83Zm-22.68-8.787h-28.74l28.74-41.561v41.561Z"/>
  <g id="Author-2" data-name="Author">
    <path id="Styxo" class="cls-5" d="M585.738,90.417c0-14.86-6.573-21.432-25.719-30.148-15-6.858-18.717-10.43-18.717-18,0-7.287,5-13.288,16.288-13.288a34.951,34.951,0,0,1,20.718,7.287l2.143-13.431c-5.715-3.286-12.859-5.572-22.432-5.572-17.86,0-30,10.145-30,26,0,14.145,7,20.289,25.576,28.719,14.859,6.715,18.86,10.43,18.86,19.432,0,9.573-7.287,15-17.574,15-9.859,0-19.146-4-25.862-8.43l-2,13.717a59.528,59.528,0,0,0,27.576,6.43C573.021,118.136,585.738,107.419,585.738,90.417Zm49.576,26.861L633.6,106.419a33.885,33.885,0,0,1-5.858.429c-7.144,0-9.43-3.429-9.43-9V59.555h16.431l-1.715-10.716H618.311V24.263L605.88,26.121V48.839H595.593V59.555H605.88v40.578c0,13.716,7.859,18,19.861,18A47.418,47.418,0,0,0,635.314,117.278Zm69.867-68.439h-13l-18.146,53.294L655.458,47.838l-12.573,2,24.861,67.439-2.572,7c-2,5.43-5.572,8-10.859,8a28.771,28.771,0,0,1-7.144-1l1.715,11.144a19.622,19.622,0,0,0,4.429.572c11.288,0,18.575-4.144,24.433-20Zm66.577,67.3-23-34.434L770.33,48.839H757.042l-14.86,23.29-15.574-24.29-12.573,2L735.61,82.13l-23,34.862h13.431l16-25.432,17.146,26.433Zm70.723-33.148c0-22.432-13.431-35.577-31.719-35.577-18.146,0-31.291,13.145-31.291,35.577s13.145,35.434,31.291,35.434C829.05,118.421,842.481,105.419,842.481,82.987Zm-12.859,0c0,14.288-6.287,24.861-18.86,24.861-12,0-18.432-10.859-18.432-24.861,0-14.288,6.144-24.861,18.432-24.861S829.622,68.985,829.622,82.987Z"/>
    <text id="t_bb_20_" data-name="t!bb 20%" class="cls-13" transform="translate(717.052 265.878) scale(0.074)"><tspan x="0">t!bb 20%</tspan></text>
    <g id="LogoMain">
      <circle id="Color_Fill_2-2" data-name="Color Fill 2" class="cls-14" cx="183.594" cy="182.344" r="182.344"/>
      <g id="PandaFace">
        <g id="Half">
          <path id="Face_base" data-name="Face base" class="cls-15" d="M336.447,252.138s-12.709,4.39-16.951,2.093c0,0,9.553-3.459,18.646-13.659,0,0-10.781,2.192-16.651-.9,0,0,11.379-3.362,16.551-9.073,0,0-12.186,1.274-18.446-2.493,0,0,10.224-2.261,17.15-10.369,0,0-12.726-.25-17.748-2.992a27.774,27.774,0,0,0,13.361-3.888s-7.212-2.525-11.866-16.053S289.879,102.59,241.027,89.915c-20.419-3.371-26.59-4.931-57.431-5.185V298.8S278.343,291.294,336.447,252.138Z"/>
          <path id="Face_Datk_tones" data-name="Face Datk tones" class="cls-16" d="M336.447,252.138s-12.709,4.39-16.951,2.093c0,0,9.553-3.459,18.646-13.659,0,0-10.781,2.192-16.651-.9,0,0,11.379-3.362,16.551-9.073,0,0-12.186,1.274-18.446-2.493,0,0,10.224-2.261,17.15-10.369,0,0-12.726-.25-17.748-2.992,0,0,8.324-.319,13.307-3.958-34.25-5.658-26.743-38.844-37.109-60.815-6.5-13.773-19.441-25.607-31.638-33.188-6.24-4.809-22.087-12.645-22.531-26.871-20.419-3.371-26.59-4.931-57.431-5.185V298.8S278.343,291.294,336.447,252.138Z"/>
          <path id="Midtones_face" data-name="Midtones face" class="cls-17" d="M267.549,157.416c-0.373-2.343-2.264-12.213-11.167-15.554-5.013-2.6-7.968-8.98-8.974-11.167s-3.972-4.778-11.964-5.883-10.562-4.653-14.657-8.176-9.793-5.635-18.945-4.786c-7.661,1.826-5.1-5.41-18.246-5.185V215.844s20.131,4.677,11.466-18.446-9.591-39.314,3.989-58.029a8.529,8.529,0,0,1,11.167-.2c1.7,1.759,6.014,2.148,9.771.8s9.454-.961,12.563,3.291,8.029,5.43,13.261,4.885,17.2,4.693,19.044,9.672C265.535,158.871,267.922,159.759,267.549,157.416Zm-21.337,36.692c6.733,2.233,9.71-17.524-2.692-19.144s-31.957-4.32-35,29.115a11.928,11.928,0,0,0,1,5.883c0.3,0.6,1.622,1.566,2.393-.3S217.4,184.555,246.212,194.108Zm9.971-1.5c0.543,3.184,2.115,21.5-9.871,34.5s-31.8.048-32.605-6.78c-0.014-1.322,1.435-.224,2,0.3s8.719,8.076,20.041,6.082,14.122-21.4,13.859-26.721S255.639,189.428,256.183,192.613Z"/>
          <path id="Highlights_face" data-name="Highlights face" class="cls-18" d="M292.675,213.75s-8.589-11.033-28.715-14.357c-7.2-.427-11.876,4.66-4.786,9.97s33.1,36.033,3.49,62.317c0,0,33.832-10.074,36.592-12.563s2.147-4.737,1.3-6.979,4.444-.715,5.584.1-2.02-6.819-8.575-11.067c-0.524-.742,4.759.062,8.674,2.991,0.97,0.755,2.993-2.037-13.061-15.754-0.976-.883,3.052.121,9.472,1.3,1.02,0.124-1.024-5.7-15.554-15.055C286.282,213.973,288.755,213.844,292.675,213.75Zm-54.938-43.272c1.562-1.48.4-3.966-13.162-1.5s-29.411,11.983-25.026,24.229,7.726,15.088,11.367,5.583,4.027-10.662,8.076-14.058S235.2,172.883,237.737,170.478Z"/>
          <g id="Eye">
            <path id="Color_Fill_12" data-name="Color Fill 12" class="cls-19" d="M249,201.287c-7.859-7.859-11.68-10.2-22.534-7.977-12.048,2.473-12.506,15.912-12.164,21.238,0.141,1.785.05,2.713,0.1,3.789s-0.051.537,2,2.293,13.436,11.573,25.026,3.29c5.444-5.008,9.142-13.994,7.777-20.34A12.648,12.648,0,0,0,249,201.287Z"/>
            <path id="Color_Fill_13" data-name="Color Fill 13" class="cls-18" d="M226.47,195.5s-8.781,2.1-10.27,19.144a3.1,3.1,0,0,1-1.1,1.894S215.776,196.818,226.47,195.5Zm21.935,8.675s-5.363,30.547-29.613,16.351c0,0-1.121,2.289,7.179,5.085S248.6,222.648,248.405,204.179Z"/>
            <path id="Color_Fill_14" data-name="Color Fill 14" class="cls-20" d="M242.323,199.193s-15.578-5.745-24.428,7.378c-0.964,4.252-1.243,12.42,9.871,16.452s19.136-8.938,18.246-16.352C244.663,200.638,242.323,199.193,242.323,199.193Z"/>
            <circle id="Color_Fill_15" data-name="Color Fill 15" class="cls-21" cx="230.531" cy="210.281" r="5.406"/>
            <path id="Color_Fill_16" data-name="Color Fill 16" class="cls-22" d="M239.831,214.349c-6.632,2.33-11.381,2.941-15.355,1.1s-4.09,2.269-2.493,3.291,10.781,7.7,20.041-1.795C243.108,215.044,241.851,214.06,239.831,214.349Z"/>
            <path id="Color_Fill_17" data-name="Color Fill 17" class="cls-23" d="M232.785,200.231c-2.213.272-3.844,1.825-3.642,3.47s2.159,2.757,4.373,2.485,3.844-1.825,3.642-3.469S235,199.96,232.785,200.231Z"/>
            <path id="Color_Fill_18" data-name="Color Fill 18" class="cls-24" d="M226.2,200.381c-2.176.487-3.647,2.193-3.285,3.81s2.419,2.532,4.595,2.045,3.647-2.192,3.286-3.809S228.375,199.894,226.2,200.381Z"/>
          </g>
          <path id="Beard" class="cls-25" d="M336.447,252.138s-13.527,3.725-17.848,4.486-22.434,4.31-30.211,6.78S222.72,281.677,183.6,278.36v25.127s15.177,1.567,50.85-6.581S323.408,266.78,336.447,252.138Zm0,0s-13.527,3.725-17.848,4.486-22.434,4.31-30.211,6.78S222.72,281.677,183.6,278.36v25.127s15.177,1.567,50.85-6.581S323.408,266.78,336.447,252.138Zm0,0s-13.527,3.725-17.848,4.486-22.434,4.31-30.211,6.78S222.72,281.677,183.6,278.36v25.127s15.177,1.567,50.85-6.581S323.408,266.78,336.447,252.138Z"/>
          <g id="Mouth">
            <path id="Color_Fill_19" data-name="Color Fill 19" class="cls-25" d="M201.045,213.152l-17.449.7v72.188s22.141-3.878,24.029-8.276,11.908-3.979,12.464-9.971,7.252-19.051-6.581-28.416S201.045,213.152,201.045,213.152Z"/>
            <path id="Color_Fill_20" data-name="Color Fill 20" class="cls-26" d="M219.59,267.991s-0.3,4.36-14.856,3.988a1.5,1.5,0,0,0-1.3,1.2c-0.352.768-9.694,10.812-19.842,9.073v6.381s31.318,0.057,37.191-20.739c0,0,15.589-12.625,7.378-28.117-10.689-13.67-19.7-19.476-20.041-28.417-1.289-4.494-8.846-3.313-12.065-2.592s-9.1,2.159-12.463,1.7v36.293h1.4V265.4s7.53,0.112,11.466,2.592S214.069,271.747,219.59,267.991Z"/>
            <path id="Color_Fill_34" data-name="Color Fill 34" class="cls-27" d="M183.6,279.457h5.284v11.466H183.6V279.457Z"/>
            <path id="Color_Fill_21" data-name="Color Fill 21" class="cls-28" d="M192.968,238.179c-0.98-4.465.2-8.939-2.592-11.965s-3.03-5.3-6.78-5.484v47.56l18.545,1.3s-2.059-.762-4.287-4.088a24.059,24.059,0,0,1-4.387-10.768C192.712,249.992,193.948,242.643,192.968,238.179Z"/>
            <path id="Color_Fill_22" data-name="Color Fill 22" class="cls-29" d="M183.6,229.5s11.635-.557,14.258,6.481,2.572,11.846-.5,16.452c-3.931,3.144-9.225,2.628-13.76,5.982V229.5Z"/>
            <path id="Color_Fill_23" data-name="Color Fill 23" class="cls-30" d="M183.6,234.29h0.9l-0.3,20.839s0.822,0.1.9-1.1,1.075-10.146.4-14.458c-0.191-1.044.619-.41,1.1,0.2a3.812,3.812,0,0,0,4.088.5,7.337,7.337,0,0,0,3.39-3.888,3.546,3.546,0,0,0-.8-3.789c-0.906-.731-3.43-2.927-9.672-2.094v3.789Z"/>
            <path id="Color_Fill_24" data-name="Color Fill 24" class="cls-31" d="M189.212,232.164c-0.928-.54-1.973-0.475-2.332.144s0.1,1.558,1.03,2.1,1.973,0.475,2.332-.144S190.141,232.7,189.212,232.164Z"/>
            <path id="Color_Fill_25" data-name="Color Fill 25" class="cls-32" d="M197.356,243.962c-0.7.867-1.96,1.354-4.088,0s-6.259,1.892-6.083,3.09,0.083,2.527.5,2.992,7.687,5.387,10.868-5.584C198.78,243.779,198.058,243.094,197.356,243.962Z"/>
            <path id="Color_Fill_26" data-name="Color Fill 26" class="cls-33" d="M198.053,243.762c0.056-.015.22,2.187-3,5.19-3.161,2.952-5.906,1.392-6.776-.3-0.433-.9-0.845-0.879-1.2-0.5-1.72,1.3-3.49,9.472-3.49,9.472s14.618-4.335,15.255-9.771S198.053,243.762,198.053,243.762Z"/>
            <path id="Color_Fill_27" data-name="Color Fill 27" class="cls-34" d="M193.965,271.481c1.083-1.933-9.5-1.513-10.369-1.5v6.481S192.015,274.964,193.965,271.481Z"/>
          </g>
          <g id="Ear">
            <path id="Color_Fill_28" data-name="Color Fill 28" class="cls-35" d="M256.282,111.052c-6.139-6.1-4.783-9.564-.4-17.349,4.838-9.6,35.75-22.984,56.135-20.54s20.088,12.1,21.039,27.319-0.263,23.651-.7,36.593-1.774,35.676-18.745,35.695c-11.84-3.509-17.549-14.258-17.549-14.258S284.015,134.439,256.282,111.052Z"/>
            <path id="Color_Fill_30" data-name="Color Fill 30" class="cls-36" d="M292.276,163.2s12.32,11.277,21.338-3.39,11.82-40.824,9.97-45.865-2.739-14.432-3.091-19.842-2.48-8.747-14.656-6.581S281.794,94.04,279.115,95.5s-13.1,6.236-14.756,9.273a24.634,24.634,0,0,0-2.792,9.472c0.035,1.927.067,8.757,1.2,10.669S292.276,163.2,292.276,163.2Z"/>
            <path id="Color_Fill_31" data-name="Color Fill 31" class="cls-37" d="M281.807,140.665s5.3,2.358,13.66,8.874c6.647,5.179,13.7-4.4,14.557-10.868s2.031-20.78.9-24.328-6.471-10.02-12.763-9.373-21.145,3.939-24.428,6.88c-4.314,3.864-4.908,9.749-4.587,12.962S281.807,140.665,281.807,140.665Z"/>
            <path id="Color_Fill_29" data-name="Color Fill 29" class="cls-38" d="M282.306,143.756a20.608,20.608,0,0,0,15.654-7.877c6.751-8.26,6.542-26.649-15.754-21.337S275.337,144.254,282.306,143.756Z"/>
            <path id="Color_Fill_32" data-name="Color Fill 32" class="cls-39" d="M310.622,65.985s-4.626,4.4-5.683,7.777c0,0-17.428,1.291-30.311,9.173s-17.664,26.726-17.149,33.1,39.593,53.055,46.962,55.636,20.541-8.313,23.73-25.824c1.744-15.487-3.537-31.66.2-48.757,1.808-9.9-1-15.236-1.2-21.138S325.163,63.314,310.622,65.985Zm-9.97,63.314s-8.028-.307-18.346,4.985c0,0,9.883,12.627,13.061,19.642s14.721,9.477,18.446-1.695,4.225-25.661,4.786-30.011,1.961-15.944-.8-20.64-6.041-9.664-17.149-8.275a69.593,69.593,0,0,0-22.833,6.68,42.883,42.883,0,0,0-10.17,8.276c-2.675,2.9-1.637,9.076,2.193,12.463,0,0,3.563-9.595,10.868-16.053,0,0-6.789,11.2-7.378,15.554-0.19.964,1.892-5.285,20.839-19.442,0,0-13,13.729-16.252,18.545-0.262.632,14.79-14.812,26.223-17.748,0,0-19.255,11.946-26.124,22.833-0.162.727,14.233-14.176,29.813-17.548,0,0-21.149,10.521-28.816,21.935-0.1.723,15.1-11.965,28.716-9.971A53.306,53.306,0,0,0,282.605,130.4C282.372,130.917,294.941,126.51,300.652,129.3Z"/>
          </g>
          <path id="Mustache" class="cls-26" d="M212.012,238.976s7.369-10.295,25.525-12.663c0,0-15.605,2.214-25.325,12.663h-0.2Zm1.4,4.587,0.4,0.8s38.355-16.717,79.267-10.269C293.074,234.091,258.056,224.386,213.408,243.563Zm9.672,1.7,0.1,0.8s59.647-12.251,96.815-1.3C320,244.759,291.963,231.963,223.08,245.258Zm-10.37,4.586,0.5,1.4s48.255-9.128,92.129,5.085C305.338,256.325,271.887,241.021,212.71,249.844Zm12.065,4.088,0.1,1.1s57.728,0.519,88.739,17.249C313.614,272.278,293.481,256.05,224.775,253.932Zm-16.252,2.294-0.1,1.395s68.586,8.987,96.217,32.305C304.64,289.926,283.935,266.7,208.523,256.226ZM218,264.8l-0.1.8s45.5,10.969,50.352,25.425C268.247,291.023,269.76,277.506,218,264.8Zm-14.757-5.085s30.377,18.734,24.528,31.308c0,0,4.032-11.947-25.026-30.51Zm0.1,5.684s7.58,7.514,7.079,20.739c0,0-.5-12.365-7.677-20.042Z"/>
        </g>
        <g id="Half-2" data-name="Half">
          <path id="Face_base-2" data-name="Face base" class="cls-15" d="M30.745,252.138s12.709,4.39,16.95,2.093c0,0-9.552-3.459-18.645-13.659,0,0,10.781,2.192,16.651-.9,0,0-11.379-3.362-16.551-9.073,0,0,12.186,1.274,18.446-2.493,0,0-10.224-2.261-17.15-10.369,0,0,12.726-.25,17.748-2.992a27.773,27.773,0,0,1-13.361-3.888s7.211-2.525,11.865-16.053S77.313,102.59,126.165,89.915c20.419-3.371,26.59-4.931,57.431-5.185V298.8S88.849,291.294,30.745,252.138Z"/>
          <path id="Face_Datk_tones-2" data-name="Face Datk tones" class="cls-16" d="M30.745,252.138s12.709,4.39,16.95,2.093c0,0-9.552-3.459-18.645-13.659,0,0,10.781,2.192,16.651-.9,0,0-11.379-3.362-16.551-9.073,0,0,12.186,1.274,18.446-2.493,0,0-10.224-2.261-17.15-10.369,0,0,12.726-.25,17.748-2.992,0,0-8.324-.319-13.307-3.958C69.137,205.131,61.63,171.945,72,149.974c6.5-13.773,19.441-25.607,31.638-33.188,6.24-4.809,22.087-12.645,22.531-26.871,20.419-3.371,26.59-4.931,57.431-5.185V298.8S88.849,291.294,30.745,252.138Z"/>
          <path id="Midtones_face-2" data-name="Midtones face" class="cls-17" d="M99.643,157.416c0.373-2.343,2.264-12.213,11.167-15.554,5.013-2.6,7.968-8.98,8.974-11.167s3.972-4.778,11.964-5.883,10.562-4.653,14.657-8.176S156.2,111,165.35,111.85c7.661,1.826,5.1-5.41,18.246-5.185V215.844s-20.131,4.677-11.466-18.446,9.591-39.314-3.989-58.029a8.529,8.529,0,0,0-11.167-.2c-1.7,1.759-6.014,2.148-9.771.8s-9.454-.961-12.563,3.291-8.029,5.43-13.261,4.885-17.2,4.693-19.044,9.672C101.657,158.871,99.27,159.759,99.643,157.416Zm21.337,36.692c-6.733,2.233-9.71-17.524,2.692-19.144s31.957-4.32,35,29.115a11.928,11.928,0,0,1-1,5.883c-0.3.6-1.622,1.566-2.393-.3S149.788,184.555,120.98,194.108Zm-9.971-1.5c-0.543,3.184-2.115,21.5,9.871,34.5s31.8,0.048,32.605-6.78c0.014-1.322-1.435-.224-2,0.3s-8.719,8.076-20.041,6.082-14.122-21.4-13.859-26.721S111.553,189.428,111.009,192.613Z"/>
          <path id="Highlights_face-2" data-name="Highlights face" class="cls-18" d="M74.517,213.75s8.589-11.033,28.715-14.357c7.2-.427,11.876,4.66,4.786,9.97s-33.1,36.033-3.49,62.317c0,0-33.832-10.074-36.592-12.563s-2.147-4.737-1.3-6.979-4.444-.715-5.584.1,2.019-6.819,8.575-11.067c0.524-.742-4.759.062-8.675,2.991-0.97.755-2.992-2.037,13.062-15.754,0.976-.883-3.052.121-9.472,1.3-1.02.124,1.024-5.7,15.554-15.055C80.91,213.973,78.437,213.844,74.517,213.75Zm54.938-43.272c-1.562-1.48-.4-3.966,13.162-1.5s29.411,11.983,25.026,24.229-7.726,15.088-11.367,5.583-4.027-10.662-8.076-14.058S131.994,172.883,129.455,170.478Z"/>
          <g id="Eye-2" data-name="Eye">
            <path id="Color_Fill_12-2" data-name="Color Fill 12" class="cls-19" d="M118.188,201.287c7.859-7.859,11.68-10.2,22.534-7.977,12.048,2.473,12.506,15.912,12.164,21.238-0.141,1.785-.05,2.713-0.1,3.789s0.051,0.537-2,2.293-13.436,11.573-25.026,3.29c-5.444-5.008-9.142-13.994-7.777-20.34A12.648,12.648,0,0,1,118.188,201.287Z"/>
            <path id="Color_Fill_13-2" data-name="Color Fill 13" class="cls-18" d="M140.722,195.5s8.781,2.1,10.27,19.144a3.1,3.1,0,0,0,1.1,1.894S151.416,196.818,140.722,195.5Zm-21.935,8.675s5.363,30.547,29.613,16.351c0,0,1.121,2.289-7.179,5.085S118.594,222.648,118.787,204.179Z"/>
            <path id="Color_Fill_14-2" data-name="Color Fill 14" class="cls-20" d="M124.869,199.193s15.578-5.745,24.428,7.378c0.964,4.252,1.243,12.42-9.871,16.452s-19.136-8.938-18.246-16.352C122.529,200.638,124.869,199.193,124.869,199.193Z"/>
            <path id="Color_Fill_15-2" data-name="Color Fill 15" class="cls-40" d="M136.671,205.107a5.189,5.189,0,1,1-5.4,5.184A5.3,5.3,0,0,1,136.671,205.107Z"/>
            <path id="Color_Fill_16-2" data-name="Color Fill 16" class="cls-22" d="M127.361,214.349c6.632,2.33,11.381,2.941,15.355,1.1s4.09,2.269,2.493,3.291-10.781,7.7-20.041-1.795C124.084,215.044,125.341,214.06,127.361,214.349Z"/>
            <path id="Color_Fill_17-2" data-name="Color Fill 17" class="cls-23" d="M134.407,200.231c2.213,0.272,3.844,1.825,3.642,3.47s-2.159,2.757-4.373,2.485-3.844-1.825-3.642-3.469S132.194,199.96,134.407,200.231Z"/>
            <path id="Color_Fill_18-2" data-name="Color Fill 18" class="cls-24" d="M140.993,200.381c2.176,0.487,3.647,2.193,3.285,3.81s-2.419,2.532-4.595,2.045-3.647-2.192-3.286-3.809S138.817,199.894,140.993,200.381Z"/>
          </g>
          <path id="Beard-2" data-name="Beard" class="cls-25" d="M30.745,252.138s13.526,3.725,17.848,4.486,22.434,4.31,30.211,6.78S144.472,281.677,183.6,278.36v25.127s-15.177,1.567-50.85-6.581S43.784,266.78,30.745,252.138Zm0,0s13.526,3.725,17.848,4.486,22.434,4.31,30.211,6.78S144.472,281.677,183.6,278.36v25.127s-15.177,1.567-50.85-6.581S43.784,266.78,30.745,252.138Zm0,0s13.526,3.725,17.848,4.486,22.434,4.31,30.211,6.78S144.472,281.677,183.6,278.36v25.127s-15.177,1.567-50.85-6.581S43.784,266.78,30.745,252.138Z"/>
          <g id="Mouth-2" data-name="Mouth">
            <path id="Color_Fill_19-2" data-name="Color Fill 19" class="cls-25" d="M166.147,213.152l17.449,0.7v72.188s-22.141-3.878-24.029-8.276-11.908-3.979-12.464-9.971-7.252-19.051,6.581-28.416S166.147,213.152,166.147,213.152Z"/>
            <path id="Color_Fill_20-2" data-name="Color Fill 20" class="cls-26" d="M147.6,267.991s0.3,4.36,14.856,3.988a1.5,1.5,0,0,1,1.3,1.2c0.352,0.768,9.694,10.812,19.842,9.073v6.381s-31.318.057-37.191-20.739c0,0-15.589-12.625-7.378-28.117,10.689-13.67,19.7-19.476,20.041-28.417,1.289-4.494,8.846-3.313,12.065-2.592s9.1,2.159,12.463,1.7v36.293h-1.4V265.4s-7.53.112-11.466,2.592S153.123,271.747,147.6,267.991Z"/>
            <path id="Color_Fill_34-2" data-name="Color Fill 34" class="cls-27" d="M183.6,279.457h-5.284v11.466H183.6V279.457Z"/>
            <path id="Color_Fill_21-2" data-name="Color Fill 21" class="cls-28" d="M174.224,238.179c0.98-4.465-.2-8.939,2.592-11.965s3.03-5.3,6.78-5.484v47.56l-18.545,1.3s2.059-.762,4.287-4.088a24.059,24.059,0,0,0,4.387-10.768C174.48,249.992,173.244,242.643,174.224,238.179Z"/>
            <path id="Color_Fill_22-2" data-name="Color Fill 22" class="cls-29" d="M183.6,229.5s-11.635-.557-14.258,6.481-2.572,11.846.5,16.452c3.931,3.144,9.225,2.628,13.76,5.982V229.5Z"/>
            <path id="Color_Fill_23-2" data-name="Color Fill 23" class="cls-30" d="M183.6,234.29h-0.9l0.3,20.839s-0.822.1-.9-1.1-1.075-10.146-.4-14.458c0.191-1.044-.619-0.41-1.1.2a3.812,3.812,0,0,1-4.088.5,7.337,7.337,0,0,1-3.39-3.888,3.546,3.546,0,0,1,.8-3.789c0.906-.731,3.43-2.927,9.672-2.094v3.789Z"/>
            <path id="Color_Fill_24-2" data-name="Color Fill 24" class="cls-31" d="M177.98,232.164c0.928-.54,1.973-0.475,2.332.144s-0.1,1.558-1.03,2.1-1.973.475-2.332-.144S177.051,232.7,177.98,232.164Z"/>
            <path id="Color_Fill_25-2" data-name="Color Fill 25" class="cls-32" d="M169.836,243.962c0.7,0.867,1.96,1.354,4.088,0s6.259,1.892,6.083,3.09-0.083,2.527-.5,2.992-7.687,5.387-10.868-5.584C168.412,243.779,169.134,243.094,169.836,243.962Z"/>
            <path id="Color_Fill_26-2" data-name="Color Fill 26" class="cls-33" d="M169.139,243.762c-0.056-.015-0.22,2.187,2.995,5.19,3.161,2.952,5.906,1.392,6.776-.3,0.433-.9.845-0.879,1.2-0.5,1.72,1.3,3.49,9.472,3.49,9.472s-14.618-4.335-15.255-9.771S169.139,243.762,169.139,243.762Z"/>
            <path id="Color_Fill_27-2" data-name="Color Fill 27" class="cls-34" d="M173.227,271.481c-1.083-1.933,9.5-1.513,10.369-1.5v6.481S175.177,274.964,173.227,271.481Z"/>
          </g>
          <g id="Ear-2" data-name="Ear">
            <path id="Color_Fill_28-2" data-name="Color Fill 28" class="cls-35" d="M110.91,111.052c6.139-6.1,4.783-9.564.4-17.349-4.838-9.6-35.75-22.984-56.135-20.54s-20.087,12.1-21.038,27.319,0.262,23.651.7,36.593,1.774,35.676,18.745,35.695c11.84-3.509,17.548-14.258,17.548-14.258S83.177,134.439,110.91,111.052Z"/>
            <path id="Color_Fill_30-2" data-name="Color Fill 30" class="cls-36" d="M74.916,163.2s-12.32,11.277-21.337-3.39-11.82-40.824-9.971-45.865S46.347,99.512,46.7,94.1s2.48-8.747,14.657-6.581S85.4,94.04,88.077,95.5s13.1,6.236,14.756,9.273a24.634,24.634,0,0,1,2.792,9.472c-0.035,1.927-.067,8.757-1.2,10.669S74.916,163.2,74.916,163.2Z"/>
            <path id="Color_Fill_31-2" data-name="Color Fill 31" class="cls-37" d="M85.385,140.665s-5.3,2.358-13.66,8.874c-6.647,5.179-13.7-4.4-14.557-10.868s-2.031-20.78-.9-24.328,6.471-10.02,12.762-9.373,21.145,3.939,24.428,6.88c4.314,3.864,4.908,9.749,4.587,12.962S85.385,140.665,85.385,140.665Z"/>
            <path id="Color_Fill_29-2" data-name="Color Fill 29" class="cls-38" d="M84.886,143.756a20.608,20.608,0,0,1-15.654-7.877c-6.751-8.26-6.543-26.649,15.754-21.337S91.855,144.254,84.886,143.756Z"/>
            <path id="Color_Fill_32-2" data-name="Color Fill 32" class="cls-39" d="M56.57,65.985s4.627,4.4,5.683,7.777c0,0,17.428,1.291,30.311,9.173s17.664,26.726,17.149,33.1S70.12,169.093,62.751,171.674s-20.541-8.313-23.73-25.824c-1.744-15.487,3.537-31.66-.2-48.757-1.808-9.9,1-15.236,1.2-21.138S42.029,63.314,56.57,65.985ZM66.54,129.3s8.028-.307,18.346,4.985c0,0-9.883,12.627-13.062,19.642S57.1,163.4,53.379,152.231s-4.225-25.661-4.786-30.011-1.961-15.944.8-20.64,6.041-9.664,17.15-8.275a69.6,69.6,0,0,1,22.833,6.68,42.9,42.9,0,0,1,10.17,8.276c2.675,2.9,1.637,9.076-2.194,12.463,0,0-3.562-9.595-10.868-16.053,0,0,6.789,11.2,7.378,15.554,0.191,0.964-1.892-5.285-20.839-19.442,0,0,13,13.729,16.252,18.545,0.261,0.632-14.79-14.812-26.223-17.748,0,0,19.254,11.946,26.123,22.833,0.162,0.727-14.233-14.176-29.812-17.548,0,0,21.149,10.521,28.815,21.935,0.1,0.723-15.1-11.965-28.716-9.971A53.306,53.306,0,0,1,84.587,130.4C84.82,130.917,72.251,126.51,66.54,129.3Z"/>
          </g>
          <path id="Mustache-2" data-name="Mustache" class="cls-26" d="M155.18,238.976s-7.369-10.295-25.525-12.663c0,0,15.6,2.214,25.325,12.663h0.2Zm-1.4,4.587-0.4.8s-38.355-16.717-79.267-10.269C74.118,234.091,109.136,224.386,153.784,243.563Zm-9.672,1.7-0.1.8S84.365,233.8,47.2,244.759C47.2,244.759,75.229,231.963,144.112,245.258Zm10.37,4.586-0.5,1.4s-48.255-9.128-92.129,5.085C61.854,256.325,95.3,241.021,154.482,249.844Zm-12.065,4.088-0.1,1.1s-57.729.519-88.739,17.249C53.578,272.278,73.711,256.05,142.417,253.932Zm16.252,2.294,0.1,1.395s-68.586,8.987-96.217,32.305C62.552,289.926,83.257,266.7,158.669,256.226ZM149.2,264.8l0.1,0.8s-45.5,10.969-50.352,25.425C98.945,291.023,97.432,277.506,149.2,264.8Zm14.757-5.085s-30.377,18.734-24.528,31.308c0,0-4.032-11.947,25.026-30.51Zm-0.1,5.684s-7.58,7.514-7.079,20.739c0,0,.5-12.365,7.677-20.042Z"/>
        </g>
      </g>
    </g>
  </g>
  <path id="CreatedTime-2" data-name="CreatedTime" class="cls-12" d="M996.85,40.472L995.188,30.26h-62.46V40.472h26.124V112.2h11.162V40.472H996.85Zm45.6,43.461c0-18.643-11.17-29.568-26.37-29.568-15.08,0-26,10.925-26,29.568s10.921,29.449,26,29.449C1031.28,113.382,1042.45,102.576,1042.45,83.933Zm-10.69,0c0,11.875-5.23,20.662-15.68,20.662-9.97,0-15.31-9.025-15.31-20.662,0-11.875,5.1-20.662,15.31-20.662S1031.76,72.3,1031.76,83.933Zm71.36,28.262V26.46l-10.57,1.662V57.334a39.787,39.787,0,0,0-14.25-2.494c-13.77,0-25.65,9.975-25.65,30.636,0,19,10.1,27.905,22.33,27.905,8.31,0,14.13-4.275,18.4-9.381l1.31,8.194h8.43Zm-10.57-18.169c-4.51,6.056-9.5,9.975-16.03,9.975-7.6,0-13.18-6.531-13.18-19,0-14.012,6.41-21.255,15.32-21.255,6.06,0,9.5.95,13.89,3.206V94.026Zm70.06,18.169V72.533c0-12.587-6.65-18.168-20.42-18.168-8.79,0-15.2,2.019-21.97,4.75l1.42,9.143c6.18-2.731,12.71-4.869,19.6-4.869,6.53,0,10.8,2.494,10.8,9.618v2.375c-23.63,2.494-35.74,8.075-35.74,22.206,0,9.618,6.41,15.793,16.62,15.793,9.27,0,15.44-4.156,19.95-8.787l1.19,7.6h8.55Zm-10.57-15.556c-4.75,4.868-10.68,7.956-16.86,7.956-5.34,0-8.43-2.969-8.43-7.6,0-5.819,4.39-11.518,25.29-13.537V96.639Zm72.2-41.086h-10.81l-15.08,44.292-15.44-45.123-10.44,1.662,20.66,56.048-2.14,5.819c-1.66,4.512-4.63,6.649-9.03,6.649a23.878,23.878,0,0,1-5.93-.831l1.42,9.262a16.327,16.327,0,0,0,3.68.475c9.38,0,15.44-3.443,20.31-16.624Zm80.03,56.642V72.533c0-12.587-6.65-18.168-20.43-18.168-8.78,0-15.2,2.019-21.97,4.75l1.43,9.143c6.17-2.731,12.71-4.869,19.59-4.869,6.53,0,10.81,2.494,10.81,9.618v2.375c-23.63,2.494-35.74,8.075-35.74,22.206,0,9.618,6.41,15.793,16.62,15.793,9.26,0,15.44-4.156,19.95-8.787l1.19,7.6h8.55ZM1293.7,96.639c-4.75,4.868-10.69,7.956-16.86,7.956-5.35,0-8.43-2.969-8.43-7.6,0-5.819,4.39-11.518,25.29-13.537V96.639Zm54.14,15.793-1.42-9.025a28.171,28.171,0,0,1-4.87.357c-5.94,0-7.84-2.85-7.84-7.481V64.459h13.66l-1.43-8.906h-12.23V35.128l-10.33,1.544V55.553h-8.55v8.906h8.55V98.183c0,11.4,6.53,14.962,16.51,14.962A39.372,39.372,0,0,0,1347.84,112.432Zm61.75-.237V31.685h-9.27l-19.23,8.906,1.18,8.55,16.75-6.294V112.2h10.57Zm68.87,0-1.43-9.5H1440.1l22.92-23.274c9.86-10.093,14.25-16.624,14.25-26.362,0-13.774-9.5-22.68-25.06-22.68a36.336,36.336,0,0,0-23.98,9.025l1.54,10.331c6.29-5.581,13.54-9.5,21.85-9.5,9.38,0,14.61,4.512,14.61,13.537,0,6.531-3.21,11.637-10.45,19.237L1426.09,104V112.2h52.37Zm25.76-42.512V55.553h-11.87V69.683h11.87Zm0,42.512V98.064h-11.87V112.2h11.87Zm63.65-21.968c0-11.162-5.94-17.456-16.27-20.306,8.67-2.85,14.72-8.55,14.72-18.524,0-10.806-7.48-21.018-25.53-21.018-9.97,0-17.1,2.85-23.27,7.362l1.54,9.975A33.312,33.312,0,0,1,1540.32,40c10.09,0,15.08,4.987,15.08,11.874,0,8.669-6.29,13.418-19.59,13.418h-6.06l1.54,9.5h3.69c15.43,0,21.96,5.819,21.96,15.556,0,9.025-6.53,13.775-17.1,13.775-8.43,0-15.08-2.494-21.85-7.125l-1.78,10.45a45.391,45.391,0,0,0,23.04,6.293C1556.82,113.738,1567.87,104.357,1567.87,90.227Zm72.43,3.8V85.239h-12.82V31.685h-12.71l-37.29,54.5v7.837h40.14V112.2h9.86V94.026h12.82Zm-22.68-8.787h-28.74l28.74-41.561V85.239Z"/>
</svg>
