<svg id="Logo_Full" data-name="Logo Full" xmlns="http://www.w3.org/2000/svg" viewBox="0 0 1000 1000"><defs><style>.cls-1{fill:#ff444f;fill-rule:evenodd;}.cls-2{fill:#151515;}</style></defs><title>TuneLogo-3TP</title><g id="Logo_Base" data-name="Logo Base"><path class="cls-1" d="M1000,200,750,0H0L250,200H575v81.3A298.61,298.61,0,0,0,400,225C234.31,225,100,359.3,100,525c0,157.28,121,286.27,275,299v51l250,125V723.42A300.07,300.07,0,0,0,657.48,371L808.07,200ZM575,925,425,850V824A298.38,298.38,0,0,0,575,768.7ZM275,150,150,50H725L850,150ZM642.34,348.15Q634.17,337,625,326.58V200H772.82Z"/></g><circle id="Record_Overlay_Int" data-name="Record Overlay Int" class="cls-2" cx="400" cy="525" r="49.03"/><path id="Record_Overlay" data-name="Record Overlay" class="cls-2" d="M400,250c-151.88,0-275,123.12-275,275S248.12,800,400,800,675,676.88,675,525,551.88,250,400,250ZM295.15,318.39a230.75,230.75,0,0,1,104.85-25c2.22,0,4.41,0,6.61.09,3.65.1,6.15,9.16,5.61,20.12L409.41,370c-.54,11-2.87,19.74-5.2,19.67-1.4,0-2.8-.06-4.21-.06a135,135,0,0,0-55.69,11.95c-10,4.52-22,1.83-27.57-7.62L288,345.27C282.36,335.82,285.36,323.37,295.15,318.39ZM283.9,421.91l-42.53-37.2c-8.27-7.22-9.12-19.82-1.18-27.39l.57-.53c8-7.55,20.46-6,27.2,2.65L302.69,404c6.75,8.66,8.32,18.78,3.89,23S292.16,429.13,283.9,421.91ZM302.69,525A97.31,97.31,0,1,1,400,622.31,97.31,97.31,0,0,1,302.69,525ZM504.4,731.83A230.63,230.63,0,0,1,400,756.63c-2.47,0-4.92,0-7.37-.11-4.06-.13-6.87-9.23-6.28-20.19l3.08-56.42c.61-11,3.2-19.69,5.83-19.6,1.57.05,3.15.08,4.74.08a135.19,135.19,0,0,0,51.48-10.12c10.16-4.18,22.61-1.43,28.59,7.77l30.83,47.41C516.88,714.65,514.2,726.87,504.4,731.83Zm54.16-38c-7.62,7.16-19.93,5.48-26.87-3L496,647c-6.94-8.51-8.71-18.37-4.33-22.41s14.35-1.78,22.61,5.45l42.54,37.22C565.1,674.51,566.18,686.71,558.56,693.86Z"/><g id="Player_Arm" data-name="Player Arm"><path class="cls-1" d="M644.34,414.72l-14.28-12.61,24.23-27.51L635,356.54l-24.71,28.07-22.06-19.48a7.24,7.24,0,0,0-10.22.63l-75.65,85.69a7.26,7.26,0,0,0,.64,10.23l56.16,49.59a7.24,7.24,0,0,0,10.22-.63L645,425A7.26,7.26,0,0,0,644.34,414.72Zm-23.77,10-54.49,61.72c-1.91,2.16-4.88,2.65-6.64,1.1l-33-29.13c-1.76-1.56-1.65-4.57.26-6.73L581.21,390c1.91-2.16,4.88-2.65,6.64-1.09l33,29.12C622.59,419.55,622.47,422.56,620.57,424.72Z"/></g></svg>